<?xml version="1.0" standalone="no"?>
<!DOCTYPE svg PUBLIC "-//W3C//DTD SVG 20010904//EN"
 "http://www.w3.org/TR/2001/REC-SVG-20010904/DTD/svg10.dtd">
<svg version="1.0" xmlns="http://www.w3.org/2000/svg"
 width="263.000000pt" height="263.000000pt" viewBox="0 0 263.000000 263.000000"
 preserveAspectRatio="xMidYMid meet">
<metadata>
Created by potrace 1.11, written by Peter Selinger 2001-2013
</metadata>
<g transform="translate(0.000000,263.000000) scale(0.100000,-0.100000)"
fill="#000000" stroke="none">
<path d="M0 1315 l0 -1315 435 0 c345 0 435 3 435 13 0 7 11 29 25 49 14 20
25 43 25 51 0 8 7 20 15 27 8 7 15 24 14 39 -1 14 2 57 5 95 4 41 3 73 -3 80
-6 7 -10 26 -10 42 3 81 -81 267 -163 364 -7 9 -51 72 -97 140 -47 69 -91 131
-98 138 -7 7 -13 17 -13 21 0 9 -79 109 -121 154 -14 15 -41 53 -59 85 -19 31
-54 83 -78 114 -24 32 -61 95 -83 140 -21 46 -57 116 -78 156 -61 111 -104
295 -103 437 1 115 7 167 24 225 29 95 41 101 83 39 65 -99 167 -178 270 -210
22 -7 54 -18 70 -25 89 -37 316 -42 507 -10 46 8 130 19 188 26 58 6 123 16
145 21 55 12 285 28 368 25 37 -1 70 1 72 5 6 9 149 2 204 -11 261 -61 350
-84 371 -99 14 -9 44 -25 68 -35 23 -11 42 -23 42 -27 0 -4 10 -11 23 -15 25
-7 116 -88 134 -119 10 -16 12 52 13 338 l0 357 -1315 0 -1315 0 0 -1315z m71
497 c-5 -2 -7 -11 -4 -20 6 -15 5 -15 -10 -3 -19 15 -23 41 -7 41 6 0 10 8 11
18 0 12 3 10 10 -8 7 -16 7 -26 0 -28z m-6 -122 c-3 -5 -13 -10 -21 -10 -8 0
-12 5 -9 10 3 6 13 10 21 10 8 0 12 -4 9 -10z"/>
<path d="M236 2134 c-4 -9 -4 -19 -1 -22 2 -3 7 3 11 12 4 9 4 19 1 22 -2 3
-7 -3 -11 -12z"/>
<path d="M2608 1830 c-12 -13 -13 -20 -5 -24 8 -3 8 -5 -1 -5 -8 -1 -16 8 -19
19 -5 17 -14 19 -77 19 -64 -1 -79 -5 -161 -47 -117 -61 -240 -183 -285 -283
-6 -13 -24 -46 -41 -74 -39 -66 -79 -153 -113 -245 -36 -95 -88 -214 -115
-260 -13 -23 -71 -164 -71 -174 0 -4 -25 -50 -55 -101 -30 -50 -55 -96 -55
-100 0 -10 -82 -133 -108 -160 -62 -67 -112 -139 -103 -145 8 -4 4 -13 -9 -25
-18 -16 -20 -17 -14 -2 8 21 -9 22 -26 2 -16 -19 -131 -96 -190 -127 -45 -23
-112 -53 -185 -81 -37 -15 27 -16 808 -16 l847 -1 0 925 c0 509 -1 925 -2 924
-2 0 -11 -9 -20 -19z m-3 -1490 c3 -5 1 -10 -4 -10 -6 0 -11 5 -11 10 0 6 2
10 4 10 3 0 8 -4 11 -10z"/>
<path d="M1595 1689 c-4 -6 -5 -12 -2 -15 2 -3 7 2 10 11 7 17 1 20 -8 4z"/>
</g>
</svg>
